<?xml version="1.0" standalone="no"?>
<!DOCTYPE svg PUBLIC "-//W3C//DTD SVG 20010904//EN"
 "http://www.w3.org/TR/2001/REC-SVG-20010904/DTD/svg10.dtd">
<svg version="1.0" xmlns="http://www.w3.org/2000/svg"
 width="512.000000pt" height="512.000000pt" viewBox="0 0 512.000000 512.000000"
 preserveAspectRatio="xMidYMid meet">
<metadata>
Created by potrace 1.16, written by Peter Selinger 2001-2019
</metadata>
<g transform="translate(0.000000,512.000000) scale(0.047407,-0.047407)"
fill="#000000" stroke="none">
<path d="M0 5400 l0 -5400 5400 0 5400 0 0 5400 0 5400 -5400 0 -5400 0 0
-5400z m8570 4833 c0 -10 -25 -353 -55 -763 -30 -410 -55 -761 -55 -781 0 -32
13 -48 134 -172 564 -575 947 -1250 1146 -2019 186 -722 186 -1484 0 -2206
-202 -779 -595 -1467 -1165 -2037 -1051 -1051 -2535 -1509 -4005 -1236 -563
105 -1117 327 -1611 647 l-96 62 -284 -585 c-231 -478 -287 -587 -307 -594
-14 -5 -27 -8 -29 -5 -2 2 21 361 53 798 l57 793 -136 137 c-561 568 -948
1250 -1147 2020 -161 625 -183 1277 -64 1918 200 1080 809 2062 1694 2731
1010 764 2285 1063 3540 830 549 -102 1118 -328 1581 -627 37 -24 72 -44 77
-44 6 0 15 14 21 32 6 17 142 272 303 566 273 500 303 548 341 551 4 1 7 -7 7
-16z"/>
<path d="M5110 9719 c-566 -39 -1116 -185 -1616 -430 -595 -291 -1101 -699
-1516 -1221 -96 -122 -287 -404 -360 -533 -757 -1338 -757 -2942 0 -4280 73
-130 264 -411 361 -534 89 -112 286 -334 355 -400 36 -35 36 -35 36 -10 0 14
5 84 11 156 l10 132 -93 108 c-555 644 -876 1367 -985 2218 -25 200 -25 740 0
940 126 985 552 1832 1262 2505 580 550 1300 913 2100 1059 268 49 364 56 730
56 366 0 462 -7 730 -56 557 -102 1082 -311 1534 -611 57 -38 104 -68 105 -66
2 2 19 46 38 98 20 52 39 102 43 110 10 27 -279 202 -550 334 -670 327 -1446
477 -2195 425z"/>
<path d="M5195 9399 c-716 -34 -1413 -264 -2015 -662 -1080 -716 -1744 -1883
-1798 -3159 -43 -1025 284 -1986 941 -2766 38 -45 71 -81 73 -79 2 2 49 620
104 1373 179 2442 260 3539 263 3550 1 7 209 -200 461 -460 253 -259 629 -644
836 -856 206 -212 627 -644 935 -960 737 -756 1651 -1692 2268 -2323 273 -280
495 -513 492 -518 -3 -4 -21 -11 -39 -14 -36 -7 -127 33 -2716 1198 l-965 435
-36 -77 c-20 -42 -237 -490 -483 -995 -245 -506 -448 -927 -451 -937 -10 -31
281 -213 560 -351 505 -248 1021 -380 1595 -407 1413 -67 2746 604 3537 1781
579 861 797 1909 612 2943 -122 685 -457 1380 -917 1905 l-39 44 -7 -64 c-3
-36 -51 -684 -106 -1440 -216 -2979 -249 -3422 -253 -3427 -3 -2 -265 263
-583 589 -318 326 -763 782 -988 1013 -226 231 -514 526 -641 655 -205 209
-561 573 -2329 2384 -444 455 -457 470 -434 482 13 7 31 13 41 14 18 0 916
-400 2692 -1201 l970 -437 56 117 c31 64 232 480 447 924 380 783 472 984 454
996 -191 133 -340 221 -547 323 -409 201 -815 322 -1281 383 -104 13 -489 37
-534 33 -8 0 -87 -5 -175 -9z"/>
<path d="M8440 8478 c0 -14 -5 -84 -11 -156 l-11 -130 94 -108 c555 -645 876
-1367 985 -2219 25 -200 25 -740 0 -940 -126 -985 -552 -1832 -1262 -2505
-580 -550 -1300 -913 -2100 -1059 -268 -49 -364 -56 -730 -56 -366 0 -462 7
-730 56 -560 102 -1077 309 -1541 616 -61 40 -113 73 -116 73 -6 0 -98 -194
-98 -206 0 -5 37 -34 83 -63 360 -237 758 -422 1167 -542 941 -276 1946 -229
2855 133 821 328 1521 897 2009 1633 125 189 175 273 264 450 651 1294 612
2811 -106 4080 -73 130 -264 411 -361 534 -89 112 -286 334 -355 400 l-36 35
0 -26z"/>
</g>
</svg>
